PathFileType	4	(X/Y/Z)	C:/Users/beibeiliu/ov580/test_trc/User2\sequence.29_training_dense_left.trc
DataRate	CameraRate	NumFrames	NumMarkers	Units	OrigDataRate	OrigDataStartFrame	OrigNumFrames
120	120	9	19	mm	120	46	365
Frame#	Time	ThumbCMC			ThumbMCP			ThumbIP			ThumbTip			IndexMCP			IndexPIP			IndexTip			MiddleMCP			MiddlePIP			MiddleTip			RingMCP			RingPIP			RingTip			PinkyMCP			PinkyPIP			PinkyTip			BackHand1			BackHand2			BackHand3	
		X0	Y0	Z0	X1	Y1	Z1	X2	Y2	Z2	X3	Y3	Z3	X4	Y4	Z4	X5	Y5	Z5	X6	Y6	Z6	X7	Y7	Z7	X8	Y8	Z8	X9	Y9	Z9	X10	Y10	Z10	X11	Y11	Z11	X12	Y12	Z12	X13	Y13	Z13	X14	Y14	Z14	X15	Y15	Z15	X16	Y16	Z16	X17	Y17	Z17	X18	Y18	Z18	
45	0.375	-147.154	-31.9387	122.692	-119.956	-47.0959	101.017	-107.353	-62.4532	75.6081	-106.983	-75.4946	52.813	-154.282	-3.63096	45.8819	-136.636	-11.0345	18.8131	-124.583	-37.6019	4.45497	-188.714	-1.61315	40.7586	-187.717	6.45903	5.78928	-180.283	8.78312	-23.0082	-208.295	-20.51	42.8874	-211.689	-16.5713	15.8404	-207.453	-16.7582	-19.6082	-223.065	-49.2011	48.2087	-228.495	-51.0545	23.3855	-230.433	-46.252	0.96129	-216.334	-34.5174	94.7017	-218.762	-32.0235	127.961	-187.025	-13.3402	115.215	
46	0.383333	-146.638	-28.3336	118.836	-118.998	-45.1381	101.876	-105.805	-60.0427	74.6295	-109.835	-74.4643	48.9061	-156.339	-2.09252	44.933	-141.768	-7.6765	17.6646	-130.205	-34.5191	-0.598869	-189.663	1.14296	40.0574	-187.582	11.0179	5.23018	-184.356	11.9679	-23.7095	-215.205	-23.3144	41.0667	-213.697	-15.3797	13.0628	-213.828	-16.678	-17.398	-225.461	-48.8804	45.7497	-227.311	-49.9373	24.9902	-231.38	-49.62	0.0412863	-214.742	-29.8256	92.0897	-220.745	-32.6839	126.164	-187.356	-11.4217	112.999	
47	0.391667	-145.916	-27.1605	119.821	-124.529	-44.5921	99.3703	-102.252	-58.3895	71.8564	-101.399	-73.2479	49.5936	-156.667	-0.408927	41.1635	-141.946	-5.2374	18.3732	-127.648	-26.9875	-3.39167	-192.572	-1.44359	41.1123	-192.957	8.11468	6.66269	-187.47	13.6404	-24.1682	-214.763	-22.9891	36.5436	-214.271	-19.1128	11.9218	-214.93	-19.5431	-19.2245	-222.728	-50.4626	48.3265	-226.824	-55.8002	21.5102	-229.166	-56.0807	-3.93724	-215.504	-31.1539	95.1806	-219.296	-27.3442	123.953	-188.277	-8.04977	112.607	
48	0.4	-148.718	-27.747	122.467	-125.666	-44.5779	100.369	-102.818	-57.0141	72.4681	-104.827	-71.9158	48.8429	-160.897	-2.17198	43.1224	-148.364	-5.84077	15.4156	-134.784	-21.7751	-7.34693	-196.457	-6.7169	40.1871	-193.44	4.66941	6.67783	-192.032	9.91472	-24.9352	-211.581	-28.8009	40.2766	-217.532	-29.6045	9.33264	-210.127	-28.5296	-21.5181	-224.409	-57.9542	46.0574	-222.754	-63.7998	19.4858	-222.526	-67.275	-0.49957	-218.647	-33.3082	96.5482	-220.628	-31.7786	124.367	-193.042	-12.427	114.005	
49	0.408333	-147.399	-27.1111	117.939	-128.347	-43.6835	98.8178	-108.154	-56.4069	72.154	-101.835	-70.1642	48.16	-165.892	-2.78823	40.3689	-152.666	-4.35355	13.1775	-141.179	-14.8132	-9.6463	-200.548	-7.05615	39.0622	-202.166	-0.476469	7.09279	-205.362	3.45426	-26.8484	-217.004	-33.2079	37.6452	-216.271	-34.9946	7.72878	-213.944	-40.304	-20.026	-221.257	-59.9021	51.4251	-216.746	-70.4772	23.5321	-215.923	-81.1814	-1.52761	-220.544	-32.4853	94.1649	-219.769	-32.2369	127.117	-193.152	-12.1563	112.459	
50	0.416667	-150.554	-27.7796	121.047	-127.837	-43.355	96.6858	-109.372	-56.8386	72.3461	-97.9159	-69.603	49.9652	-168.912	-4.26555	44.3825	-162.321	-3.40363	11.3781	-149.695	-8.35559	-11.4512	-204.055	-11.1494	38.1735	-207.72	-4.02538	5.49209	-211.375	-2.09358	-24.0682	-216.722	-37.8886	37.7146	-217.475	-45.9877	5.68481	-209.424	-54.2981	-22.9798	-220.976	-67.6087	46.1363	-215.195	-81.5143	25.2148	-203.741	-90.3423	4.88464	-221.909	-34.4372	95.8645	-224.985	-33.1536	125.816	-195.695	-12.5682	110.859	
51	0.425	-151.302	-27.5289	119.855	-125.806	-43.0286	98.4989	-110.168	-57.5306	72.2028	-98.4903	-70.6398	47.6087	-174.479	-4.57095	40.4825	-166.533	-1.70601	11.864	-158.967	-4.90232	-16.8961	-205.932	-13.8118	36.9245	-208.402	-7.07776	7.11586	-216.098	-6.69708	-29.7776	-215.184	-41.6888	34.5512	-212.655	-51.6125	5.05799	-206.39	-66.3031	-18.2227	-221.578	-73.4219	48.6362	-206.108	-89.4467	25.5602	-189.715	-100.541	11.325	-221.566	-35.4555	93.191	-226.315	-36.4506	126.095	-195.692	-11.2758	109.09	
52	0.433333	-155.963	-26.8309	115.282	-130.949	-42.2999	98.3057	-107.155	-55.8608	66.8965	-99.598	-70.6956	48.7042	-180.249	-6.21738	40.1915	-173.842	-1.86589	12.1925	-167.867	-2.42854	-17.1039	-210.296	-16.6607	31.5816	-210.678	-11.8214	4.6051	-213.535	-10.2525	-28.415	-218.05	-49.2613	35.9268	-210.331	-57.7817	6.24282	-199.252	-74.6863	-17.7707	-218.122	-77.9714	48.5303	-199.841	-94.8833	29.2577	-182.309	-110.739	15.2295	-221.982	-37.8162	91.5367	-228.551	-36.7837	128.193	-197.564	-11.62	106.272	
53	0.441667	-154.674	-23.3457	116.963	-128.877	-39.4962	92.5998	-106.837	-53.7459	67.9318	-100.261	-68.8384	50.9724	-182.627	-5.512	39.9685	-176.315	-0.589022	11.052	-172.14	1.90427	-13.011	-207.381	-17.2193	30.237	-211.688	-16.7544	-0.732046	-215.963	-17.7586	-29.7538	-212.16	-49.0717	32.4201	-206.23	-63.9061	8.35419	-189.99	-77.2817	-12.2796	-213.761	-77.6491	48.9109	-193.638	-94.6099	32.4599	-174.78	-108.446	22.0968	-226.59	-39.5013	95.2725	-227.327	-36.4658	126.034	-198.814	-10.3117	105.551	
